<?xml version="1.0" standalone="no"?>
<!DOCTYPE svg PUBLIC "-//W3C//DTD SVG 20010904//EN"
 "http://www.w3.org/TR/2001/REC-SVG-20010904/DTD/svg10.dtd">
<svg version="1.0" xmlns="http://www.w3.org/2000/svg"
 width="512.000000pt" height="512.000000pt" viewBox="0 0 512.000000 512.000000"
 preserveAspectRatio="xMidYMid meet">
<metadata>
Created by potrace 1.11, written by Peter Selinger 2001-2013
</metadata>
<g transform="translate(0.000000,512.000000) scale(0.100000,-0.100000)"
fill="#000000" stroke="none">
<path d="M0 2560 l0 -2560 2560 0 2560 0 0 2560 0 2560 -2560 0 -2560 0 0
-2560z m4957 2397 c2 -3 5 -3201 3 -4669 l0 -148 -2410 0 -2410 0 0 2409 0
2410 38 3 c54 4 4774 -1 4779 -5z"/>
<path d="M688 4645 c-3 -6 -6 -432 -6 -948 l-1 -938 427 2 c323 1 447 5 507
15 44 8 89 16 100 18 11 2 27 6 35 9 164 57 220 84 305 145 95 69 184 165 237
257 56 96 104 221 114 295 2 19 8 58 12 85 5 28 7 87 6 130 -2 78 -7 125 -28
235 -19 105 -146 337 -212 389 -13 10 -21 20 -19 23 3 3 -6 11 -20 18 -14 7
-25 17 -25 20 0 12 -139 104 -201 133 -60 29 -160 66 -196 73 -13 2 -33 6 -45
9 -38 7 -101 16 -138 19 -20 1 -41 6 -48 10 -7 4 -12 3 -12 -2 0 -5 -20 -6
-45 -2 -24 4 -48 3 -54 -3 -5 -5 -11 -5 -15 2 -4 6 -15 7 -30 1 -12 -4 -29 -4
-36 0 -9 5 -20 4 -27 -2 -8 -6 -13 -6 -13 -1 0 11 -29 11 -48 -1 -6 -4 -12 -3
-12 1 0 10 -77 9 -86 0 -4 -3 -16 -2 -29 3 -14 5 -26 5 -33 -2 -6 -6 -12 -6
-16 1 -5 7 -15 7 -32 1 -14 -6 -23 -7 -21 -2 3 4 -12 7 -34 7 -21 0 -39 -4
-39 -8 0 -5 -6 -5 -12 -1 -18 11 -48 12 -48 2 0 -5 -6 -6 -12 -1 -17 10 -39
10 -60 0 -10 -4 -18 -4 -18 1 0 10 -30 9 -47 -1 -6 -4 -13 -2 -15 5 -3 7 -7 8
-10 3z m927 -145 c39 -7 77 -16 86 -21 9 -4 28 -10 44 -13 36 -7 185 -77 185
-88 0 -4 5 -8 11 -8 31 0 163 -130 217 -214 56 -86 114 -234 113 -288 0 -10 4
-20 10 -23 5 -4 5 -13 -1 -25 -6 -10 -6 -21 -2 -24 15 -9 3 -281 -14 -307 -3
-5 -8 -22 -10 -37 -12 -69 -101 -228 -171 -307 -51 -57 -209 -169 -224 -159
-5 3 -9 1 -9 -4 0 -12 -168 -68 -250 -84 -44 -8 -180 -12 -420 -13 l-355 0 -3
816 -2 815 362 -2 c244 -1 386 -5 433 -14z"/>
<path d="M3470 4637 c0 -4 -4 -6 -10 -2 -7 4 -50 -69 -55 -95 -1 -6 -31 -70
-88 -190 -22 -47 -41 -87 -42 -90 0 -3 -6 -14 -12 -25 -6 -11 -12 -23 -12 -27
-1 -5 -22 -52 -47 -105 -25 -54 -65 -141 -89 -193 -24 -52 -66 -144 -94 -203
-28 -60 -51 -110 -51 -112 0 -3 -27 -60 -59 -129 -33 -68 -65 -141 -72 -160
-7 -20 -17 -36 -21 -36 -4 0 -8 -6 -8 -14 0 -7 -22 -60 -49 -117 -27 -57 -60
-129 -74 -159 -14 -30 -41 -90 -61 -133 -20 -42 -36 -79 -36 -82 0 -3 33 -5
74 -5 69 0 75 2 82 23 4 12 22 53 40 91 19 38 34 75 34 83 0 7 5 13 10 13 6 0
10 8 10 18 0 10 3 22 8 26 4 4 7 11 8 14 0 4 16 41 36 82 19 41 46 99 58 128
l24 52 545 0 546 0 14 -32 c8 -18 29 -64 47 -103 56 -124 103 -228 142 -312
l37 -82 73 -1 c39 0 72 2 72 4 0 3 -16 40 -36 83 -61 131 -95 206 -119 258
-12 28 -34 76 -49 107 -14 31 -26 61 -26 66 0 5 -7 15 -15 22 -8 7 -15 18 -15
26 0 7 -23 60 -51 116 -27 57 -50 105 -50 108 0 3 -10 28 -23 55 -13 28 -36
77 -52 110 -15 33 -27 63 -26 68 1 4 -3 7 -8 7 -6 0 -10 4 -10 10 0 13 -81
194 -206 459 -30 62 -54 115 -54 117 0 3 -30 68 -96 211 -24 50 -48 71 -59 52
-4 -5 -12 -6 -18 -2 -17 10 -67 11 -67 0z m60 -166 c0 -8 25 -63 107 -240 31
-66 66 -144 68 -151 1 -3 13 -31 28 -62 15 -32 39 -84 53 -115 14 -32 51 -112
81 -178 109 -239 129 -284 136 -305 4 -13 -52 -15 -478 -15 -266 0 -486 3
-490 7 -4 4 0 19 9 35 8 15 29 58 46 96 16 37 44 97 61 135 84 182 97 211 91
216 -3 3 0 6 6 6 7 0 12 4 12 9 0 5 14 40 31 78 17 37 38 84 46 103 9 19 26
57 39 84 13 28 24 55 24 61 0 6 6 17 13 24 6 6 12 15 12 19 0 15 90 202 97
202 5 0 8 -4 8 -9z"/>
<path d="M680 2303 c-3 -315 -1 -1826 3 -1829 6 -6 905 -4 987 1 92 7 196 35
290 79 52 24 50 23 112 77 134 116 175 345 98 547 -6 17 -16 32 -21 32 -5 0
-9 8 -9 18 0 46 -191 180 -280 196 -14 3 -27 5 -30 6 -3 2 -8 2 -12 1 -5 0 -8
2 -8 7 0 4 26 18 57 31 66 29 160 117 192 179 38 74 54 158 48 252 -13 216
-136 352 -377 418 -87 24 -200 30 -607 31 l-443 1 0 -47z m1010 -100 c133 -42
202 -96 248 -193 22 -46 27 -69 27 -140 0 -101 -4 -121 -33 -180 -27 -56 -82
-110 -147 -143 -44 -22 -73 -32 -160 -54 -24 -7 -783 -13 -799 -7 -8 3 -11
109 -10 372 1 202 2 368 3 370 0 2 182 2 404 0 371 -4 407 -6 467 -25z m-55
-847 c44 -4 98 -11 120 -17 22 -6 48 -10 58 -10 9 0 17 -4 17 -10 0 -5 3 -8 8
-7 4 2 27 -7 52 -20 43 -21 85 -56 122 -101 31 -37 58 -136 58 -209 0 -71 -24
-185 -40 -190 -6 -2 -10 -9 -10 -16 0 -6 -19 -30 -42 -52 -44 -42 -118 -91
-118 -79 0 4 -6 3 -12 -2 -23 -19 -97 -37 -193 -48 -25 -3 -544 -7 -775 -5
l-65 0 0 382 0 383 24 5 c37 7 703 4 796 -4z"/>
<path d="M3432 2325 c-7 -14 -12 -32 -12 -40 0 -8 -4 -15 -10 -15 -5 0 -10 -4
-10 -10 0 -5 -16 -45 -36 -87 -20 -43 -50 -107 -66 -143 -17 -36 -55 -119 -85
-185 -31 -66 -67 -145 -81 -175 -14 -30 -26 -57 -27 -60 -2 -6 -45 -99 -89
-195 -18 -38 -41 -88 -51 -110 -9 -22 -35 -76 -56 -119 -21 -44 -36 -83 -33
-88 3 -4 1 -8 -4 -8 -7 0 -46 -76 -57 -110 -2 -8 -30 -69 -75 -165 -23 -49
-55 -119 -72 -155 -16 -36 -41 -88 -54 -116 -36 -76 -34 -79 38 -77 35 1 66 2
70 2 7 1 37 64 93 191 32 74 49 111 118 261 l36 77 545 0 544 0 23 -52 c12
-28 40 -89 62 -136 22 -47 50 -107 62 -135 13 -27 39 -84 58 -126 l36 -77 43
-3 c54 -5 98 0 98 10 0 5 -17 44 -37 87 -20 43 -36 82 -35 87 1 4 -2 7 -8 7
-5 0 -10 6 -10 13 0 8 -15 45 -33 83 -19 38 -51 107 -71 154 -21 47 -42 92
-47 100 -5 8 -12 22 -16 30 -17 39 -165 364 -197 431 -20 42 -36 82 -36 88 0
6 -5 11 -12 11 -6 0 -8 3 -5 6 4 4 0 19 -8 33 -22 40 -123 259 -130 281 -1 3
-16 37 -34 75 -19 39 -46 97 -61 130 -79 174 -101 221 -109 235 -6 11 -28 16
-78 18 -66 3 -70 2 -81 -23z m196 -380 c55 -121 116 -254 136 -296 20 -42 36
-79 36 -82 0 -2 21 -49 46 -103 84 -182 92 -199 94 -206 0 -4 14 -34 30 -67
17 -33 30 -64 30 -68 0 -5 -219 -9 -486 -9 l-485 0 5 22 c3 12 25 61 48 110
23 49 42 92 42 96 1 3 4 10 9 14 4 4 7 16 7 26 0 10 5 18 10 18 6 0 10 9 10
20 0 11 5 20 10 20 6 0 9 3 8 8 -2 9 6 27 49 120 18 40 33 77 33 82 0 6 5 10
12 10 6 0 9 3 5 6 -3 4 9 37 28 75 19 38 35 75 35 84 0 8 5 15 10 15 6 0 10 5
10 11 0 5 32 79 70 163 39 85 70 160 70 167 0 34 35 -30 128 -236z"/>
</g>
</svg>
